# xmcd
#
# Track frame offsets: 
#        150
#        9810
#        30890
#        48147
#        79275
#        95367
#        125047
#        151152
#        161790
#        173985
#
# Disc length: 2458 seconds
#
# Revision: 0
# Processed by: cddbd v1.5PL3 Copyright (c) Steve Scherf et al.
# Submitted via: ExactAudioCopy v0.95a5
#
DISCID=6909980a
DTITLE=Jackson Southernaires - You've Been Good To Me
DYEAR=1973
DGENRE=Gospel
TTITLE0=Don't Let Him Catch you (With Your Work Undone)
TTITLE1=Keep On Praying
TTITLE2=Lord You've Been Good To Me
TTITLE3=Save My Child
TTITLE4=The Lord Will Make A Way Somehow
TTITLE5=Walk Around Heaven All Day
TTITLE6=Lord, I'm So Thankful
TTITLE7=I'd Like To Recommend you To The Lord
TTITLE8=Waiting On Jesus
TTITLE9=Wonderful To Be Alive
EXTD=
EXTT0=
EXTT1=
EXTT2=
EXTT3=
EXTT4=
EXTT5=
EXTT6=
EXTT7=
EXTT8=
EXTT9=
PLAYORDER=
